<?xml version="1.0" encoding="UTF-8" standalone="no"?>
<!-- Created with Inkscape (http://www.inkscape.org/) -->

<svg
   xmlns:dc="http://purl.org/dc/elements/1.1/"
   xmlns:cc="http://creativecommons.org/ns#"
   xmlns:rdf="http://www.w3.org/1999/02/22-rdf-syntax-ns#"
   xmlns:svg="http://www.w3.org/2000/svg"
   xmlns="http://www.w3.org/2000/svg"
   xmlns:sodipodi="http://sodipodi.sourceforge.net/DTD/sodipodi-0.dtd"
   xmlns:inkscape="http://www.inkscape.org/namespaces/inkscape"
   width="128"
   height="256"
   viewBox="0 0 128.0000009922396 256.0000053719148"
   id="svg4290"
   version="1.1"
   inkscape:version="0.91 r13725"
   sodipodi:docname="capsule.svg"
   inkscape:export-filename="/home/zlsa/projects/online/dragon-lander/images/crew-dragon/capsule.png"
   inkscape:export-xdpi="180"
   inkscape:export-ydpi="180">
  <defs
     id="defs4292" />
  <sodipodi:namedview
     id="base"
     pagecolor="#b9b9b9"
     bordercolor="#666666"
     borderopacity="1.0"
     inkscape:pageopacity="0"
     inkscape:pageshadow="2"
     inkscape:zoom="1"
     inkscape:cx="52.0861464023759"
     inkscape:cy="174.8597771313699"
     inkscape:document-units="px"
     inkscape:current-layer="g5728"
     showgrid="false"
     inkscape:snap-center="true"
     units="px"
     inkscape:window-width="1600"
     inkscape:window-height="859"
     inkscape:window-x="0"
     inkscape:window-y="20"
     inkscape:window-maximized="0"
     inkscape:object-nodes="true"
     inkscape:snap-smooth-nodes="true"
     showguides="true"
     inkscape:guide-bbox="true"
     height="256px">
    <inkscape:grid
       type="xygrid"
       id="grid4315" />
    <sodipodi:guide
       position="64.0000004961198,-48.00000100723403"
       orientation="1,0"
       id="guide4679" />
    <sodipodi:guide
       position="128.0000009922396,64.00000134297871"
       orientation="0,1"
       id="guide4681" />
    <sodipodi:guide
       position="256.0000019844792,192.0000040289361"
       orientation="0,1"
       id="guide6055" />
  </sodipodi:namedview>
  <metadata
     id="metadata4295">
    <rdf:RDF>
      <cc:Work
         rdf:about="">
        <dc:format>image/svg+xml</dc:format>
        <dc:type
           rdf:resource="http://purl.org/dc/dcmitype/StillImage" />
        <dc:title></dc:title>
      </cc:Work>
    </rdf:RDF>
  </metadata>
  <g
     inkscape:label="Layer 1"
     inkscape:groupmode="layer"
     id="layer1"
     transform="translate(0,-796.3621605099649)">
    <g
       inkscape:export-ydpi="90"
       inkscape:export-xdpi="90"
       transform="translate(-64,-49.00002210722261)"
       id="g5728">
      <path
         style="fill:#ffffff;fill-opacity:1;fill-rule:evenodd;stroke:#ffffff;stroke-width:4;stroke-linecap:butt;stroke-linejoin:miter;stroke-miterlimit:4;stroke-dasharray:none;stroke-opacity:1"
         d="m 114,916.36216 c 0,4 28,4 28,0 0,0 0,-12 -6,-24 -4,-8 -12,-8 -16,0 -6,12 -6,24 -6,24 z"
         id="path6057"
         inkscape:connector-curvature="0"
         sodipodi:nodetypes="scsss" />
      <path
         sodipodi:nodetypes="scsss"
         inkscape:connector-curvature="0"
         id="path5730"
         d="m 114,916.36216 c 0,4 28,4 28,0 0,0 0,-12 -6,-24 -4,-8 -12,-8 -16,0 -6,12 -6,24 -6,24 z"
         style="fill:#ffffff;fill-opacity:1;fill-rule:evenodd;stroke:#404040;stroke-width:2;stroke-linecap:butt;stroke-linejoin:miter;stroke-miterlimit:4;stroke-dasharray:none;stroke-opacity:1" />
      <path
         sodipodi:nodetypes="cc"
         inkscape:connector-curvature="0"
         id="path5732"
         d="m 120,892.36216 c 4,1 12,1 16,0"
         style="fill:none;fill-rule:evenodd;stroke:#404040;stroke-width:1px;stroke-linecap:butt;stroke-linejoin:miter;stroke-opacity:1" />
      <path
         sodipodi:nodetypes="cccccccccccc"
         inkscape:connector-curvature="0"
         id="path5734"
         d="m 115,905.36216 -1,11 4,3 16,0 3,0 5,-3 -1,-11 -5,0 c 0,0 -1.28544,4.5670599999996 -1.78906,10 l -12.42188,0 c -0.50362,-5.4329400000004 -1.78906,-10 -1.78906,-10 z"
         style="fill:#404040;fill-opacity:1;fill-rule:evenodd;stroke:none;stroke-width:1px;stroke-linecap:butt;stroke-linejoin:miter;stroke-opacity:1" />
      <ellipse
         ry="3"
         rx="1.5"
         cy="901.3621826171875"
         cx="128"
         id="ellipse5736"
         style="opacity:1;fill:#41413f;fill-opacity:1;fill-rule:nonzero;stroke:none;stroke-width:2;stroke-linecap:butt;stroke-linejoin:round;stroke-miterlimit:4;stroke-dasharray:none;stroke-dashoffset:0;stroke-opacity:1" />
      <ellipse
         style="opacity:1;fill:#41413f;fill-opacity:1;fill-rule:nonzero;stroke:none;stroke-width:2;stroke-linecap:butt;stroke-linejoin:round;stroke-miterlimit:4;stroke-dasharray:none;stroke-dashoffset:0;stroke-opacity:1"
         id="ellipse5738"
         cx="123.5"
         cy="901.3621826171875"
         rx="1.5"
         ry="3" />
      <path
         inkscape:connector-curvature="0"
         id="path5740"
         d="m 126,896.36216 c -0.55399,0 -1,0.44601 -1,1 l 0,1 c 0,-0.55399 0.44601,-1 1,-1 l 4,0 c 0.55399,0 1,0.44601 1,1 l 0,-1 c 0,-0.55399 -0.44601,-1 -1,-1 l -4,0 z"
         style="opacity:1;fill:#c0c0be;fill-opacity:1;fill-rule:nonzero;stroke:none;stroke-width:2;stroke-linecap:butt;stroke-linejoin:round;stroke-miterlimit:4;stroke-dasharray:none;stroke-dashoffset:0;stroke-opacity:1" />
      <ellipse
         ry="3"
         rx="1.5"
         cy="901.3621826171875"
         cx="132.5"
         id="ellipse5742"
         style="opacity:1;fill:#41413f;fill-opacity:1;fill-rule:nonzero;stroke:none;stroke-width:2;stroke-linecap:butt;stroke-linejoin:round;stroke-miterlimit:4;stroke-dasharray:none;stroke-dashoffset:0;stroke-opacity:1" />
      <path
         inkscape:connector-curvature="0"
         style="opacity:1;fill:#c0c0be;fill-opacity:1;fill-rule:nonzero;stroke:none;stroke-width:2;stroke-linecap:butt;stroke-linejoin:round;stroke-miterlimit:4;stroke-dasharray:none;stroke-dashoffset:0;stroke-opacity:1"
         d="m 126,907.36216 c -0.55399,0 -1,-0.44601 -1,-1 l 0,-1 c 0,0.55399 0.44601,1 1,1 l 4,0 c 0.55399,0 1,-0.44601 1,-1 l 0,1 c 0,0.55399 -0.44601,1 -1,1 l -4,0 z"
         id="path5744" />
    </g>
  </g>
</svg>
